# MagicaVoxel @ Ephtracy

# group
o 

# material
mtllib glider.mtl
usemtl palette

# normals
vn -1 0 0
vn 1 0 0
vn 0 0 1
vn 0 0 -1
vn 0 -1 0
vn 0 1 0

# texcoords
vt 0.533203 0.5
vt 0.919922 0.5
vt 0.958984 0.5

# verts
v -1 1.9 -0.5
v -1 1.9 -1.1
v -1 2 -0.5
v -1 2 -1.1
v -0.9 1.8 -0.6
v -0.9 1.8 -1
v -0.9 1.9 -0.3
v -0.9 1.9 -0.5
v -0.9 1.9 -0.6
v -0.9 1.9 -1
v -0.9 2 -0.3
v -0.9 2 -0.5
v -0.8 1.8 -0.3
v -0.8 1.8 -0.6
v -0.8 1.9 -0.1
v -0.8 1.9 -0.3
v -0.8 1.9 -0.6
v -0.8 2 -0.1
v -0.8 2 -0.3
v -0.7 1.8 -0.1
v -0.7 1.8 -0.3
v -0.7 1.9 0.1
v -0.7 1.9 -0.1
v -0.7 1.9 -0.3
v -0.7 2 0.1
v -0.7 2 -0.1
v -0.6 1.8 0.1
v -0.6 1.8 -0.1
v -0.6 1.9 0.4
v -0.6 1.9 0.1
v -0.6 1.9 -0.1
v -0.6 2 0.4
v -0.6 2 0.1
v -0.5 1.8 0.4
v -0.5 1.8 0.1
v -0.5 1.9 0.6
v -0.5 1.9 0.4
v -0.5 1.9 0.1
v -0.5 2 0.6
v -0.5 2 0.4
v -0.4 1.8 0.6
v -0.4 1.8 0.4
v -0.4 1.9 0.7
v -0.4 1.9 0.6
v -0.4 1.9 0.4
v -0.4 2 0.7
v -0.4 2 0.6
v -0.3 1.8 0.7
v -0.3 1.8 0.6
v -0.3 1.9 0.8
v -0.3 1.9 0.7
v -0.3 1.9 0.6
v -0.3 2 0.8
v -0.3 2 0.7
v -0.2 1.8 0.8
v -0.2 1.8 0.7
v -0.2 1.9 0.9
v -0.2 1.9 0.8
v -0.2 1.9 0.7
v -0.2 2 0.9
v -0.2 2 0.8
v -0.1 1.8 0.9
v -0.1 1.8 0.8
v -0.1 1.9 1
v -0.1 1.9 0.9
v -0.1 1.9 0.8
v -0.1 2 1
v -0.1 2 0.9
v 0.7 1.9 -0.5
v 0.7 1.9 -0.7
v 0.7 2 -0.5
v 0.7 2 -0.7
v 0 1.8 0.9
v 0 1.8 0.8
v 0 1.9 1
v 0 1.9 0.9
v 0 1.9 0.8
v 0 2 1
v 0 2 0.9
v 0.1 1.8 0.8
v 0.1 1.8 0.7
v 0.1 1.9 0.9
v 0.1 1.9 0.8
v 0.1 1.9 0.7
v 0.1 2 0.9
v 0.1 2 0.8
v 0.2 1.8 0.7
v 0.2 1.8 0.6
v 0.2 1.9 0.8
v 0.2 1.9 0.7
v 0.2 1.9 0.6
v 0.2 2 0.8
v 0.2 2 0.7
v 0.3 1.8 0.6
v 0.3 1.8 0.4
v 0.3 1.9 0.7
v 0.3 1.9 0.6
v 0.3 1.9 0.4
v 0.3 2 0.7
v 0.3 2 0.6
v 0.4 1.8 0.4
v 0.4 1.8 0.1
v 0.4 1.9 0.6
v 0.4 1.9 0.4
v 0.4 1.9 0.1
v 0.4 2 0.6
v 0.4 2 0.4
v 0.5 1.8 0.1
v 0.5 1.8 -0.1
v 0.5 1.9 0.4
v 0.5 1.9 0.1
v 0.5 1.9 -0.1
v 0.5 2 0.4
v 0.5 2 0.1
v 0.6 1.8 -0.1
v 0.6 1.8 -0.3
v 0.6 1.9 0.1
v 0.6 1.9 -0.1
v 0.6 1.9 -0.3
v 0.6 1.9 -0.5
v 0.6 1.9 -0.7
v 0.6 2 0.1
v 0.6 2 -0.1
v 0.6 2 -0.5
v 0.6 2 -0.7
v 0.7 1.8 -0.3
v 0.7 1.8 -0.5
v 0.7 1.9 -0.1
v 0.7 1.9 -0.3
v 0.7 1.9 -0.5
v 0.7 2 -0.1
v 0.7 2 -0.3
v 0.8 1.8 -0.5
v 0.8 1.8 -0.6
v 0.8 1.9 -0.3
v 0.8 1.9 -0.5
v 0.8 1.9 -0.6
v 0.8 2 -0.3
v 0.8 2 -0.5
v 0.9 1.8 -0.6
v 0.9 1.8 -1
v 0.9 1.9 -0.6
v 0.9 1.9 -1
v 1 1.9 -0.5
v 1 1.9 -1.1
v 1 2 -0.5
v 1 2 -1.1
v -0.1 1.9 1
v -0.1 2 1
v 0 1.9 1
v 0 2 1
v -0.2 1.9 0.9
v -0.2 2 0.9
v -0.1 1.8 0.9
v -0.1 1.9 0.9
v -0.1 2 0.9
v 0 1.8 0.9
v 0 1.9 0.9
v 0 2 0.9
v 0.1 1.9 0.9
v 0.1 2 0.9
v -0.3 1.9 0.8
v -0.3 2 0.8
v -0.2 1.8 0.8
v -0.2 1.9 0.8
v -0.2 2 0.8
v -0.1 1.8 0.8
v -0.1 1.9 0.8
v 0 1.8 0.8
v 0 1.9 0.8
v 0.1 1.8 0.8
v 0.1 1.9 0.8
v 0.1 2 0.8
v 0.2 1.9 0.8
v 0.2 2 0.8
v -0.4 1.9 0.7
v -0.4 2 0.7
v -0.3 1.8 0.7
v -0.3 1.9 0.7
v -0.3 2 0.7
v -0.2 1.8 0.7
v -0.2 1.9 0.7
v 0.1 1.8 0.7
v 0.1 1.9 0.7
v 0.2 1.8 0.7
v 0.2 1.9 0.7
v 0.2 2 0.7
v 0.3 1.9 0.7
v 0.3 2 0.7
v -0.5 1.9 0.6
v -0.5 2 0.6
v -0.4 1.8 0.6
v -0.4 1.9 0.6
v -0.4 2 0.6
v -0.3 1.8 0.6
v -0.3 1.9 0.6
v 0.2 1.8 0.6
v 0.2 1.9 0.6
v 0.3 1.8 0.6
v 0.3 1.9 0.6
v 0.3 2 0.6
v 0.4 1.9 0.6
v 0.4 2 0.6
v -0.6 1.9 0.4
v -0.6 2 0.4
v -0.5 1.8 0.4
v -0.5 1.9 0.4
v -0.5 2 0.4
v -0.4 1.8 0.4
v -0.4 1.9 0.4
v 0.3 1.8 0.4
v 0.3 1.9 0.4
v 0.4 1.8 0.4
v 0.4 1.9 0.4
v 0.4 2 0.4
v 0.5 1.9 0.4
v 0.5 2 0.4
v -0.7 1.9 0.1
v -0.7 2 0.1
v -0.6 1.8 0.1
v -0.6 1.9 0.1
v -0.6 2 0.1
v -0.5 1.8 0.1
v -0.5 1.9 0.1
v 0.4 1.8 0.1
v 0.4 1.9 0.1
v 0.5 1.8 0.1
v 0.5 1.9 0.1
v 0.5 2 0.1
v 0.6 1.9 0.1
v 0.6 2 0.1
v -0.8 1.9 -0.1
v -0.8 2 -0.1
v -0.7 1.8 -0.1
v -0.7 1.9 -0.1
v -0.7 2 -0.1
v -0.6 1.8 -0.1
v -0.6 1.9 -0.1
v 0.5 1.8 -0.1
v 0.5 1.9 -0.1
v 0.6 1.8 -0.1
v 0.6 1.9 -0.1
v 0.6 2 -0.1
v 0.7 1.9 -0.1
v 0.7 2 -0.1
v -0.9 1.9 -0.3
v -0.9 2 -0.3
v -0.8 1.8 -0.3
v -0.8 1.9 -0.3
v -0.8 2 -0.3
v -0.7 1.8 -0.3
v -0.7 1.9 -0.3
v 0.6 1.8 -0.3
v 0.6 1.9 -0.3
v 0.7 1.8 -0.3
v 0.7 1.9 -0.3
v 0.7 2 -0.3
v 0.8 1.9 -0.3
v 0.8 2 -0.3
v -1 1.9 -0.5
v -1 2 -0.5
v -0.9 1.9 -0.5
v -0.9 2 -0.5
v 0.7 1.8 -0.5
v 0.7 1.9 -0.5
v 0.8 1.8 -0.5
v 0.8 1.9 -0.5
v 0.8 2 -0.5
v 1 1.9 -0.5
v 1 2 -0.5
v -0.9 1.8 -0.6
v -0.9 1.9 -0.6
v -0.8 1.8 -0.6
v -0.8 1.9 -0.6
v 0.8 1.8 -0.6
v 0.8 1.9 -0.6
v 0.9 1.8 -0.6
v 0.9 1.9 -0.6
v 0.6 1.9 -0.7
v 0.6 2 -0.7
v 0.7 1.9 -0.7
v 0.7 2 -0.7
v 0.6 1.9 -0.5
v 0.6 2 -0.5
v 0.7 1.9 -0.5
v 0.7 2 -0.5
v -0.9 1.8 -1
v -0.9 1.9 -1
v -0.8 1.8 -1
v -0.8 1.9 -1
v -0.7 1.8 -1
v -0.7 1.9 -1
v -0.6 1.8 -1
v -0.6 1.9 -1
v -0.5 1.8 -1
v -0.5 1.9 -1
v -0.4 1.8 -1
v -0.4 1.9 -1
v -0.3 1.8 -1
v -0.3 1.9 -1
v -0.2 1.8 -1
v -0.2 1.9 -1
v -0.1 1.8 -1
v -0.1 1.9 -1
v 0 1.8 -1
v 0 1.9 -1
v 0.1 1.8 -1
v 0.1 1.9 -1
v 0.2 1.8 -1
v 0.2 1.9 -1
v 0.3 1.8 -1
v 0.3 1.9 -1
v 0.4 1.8 -1
v 0.4 1.9 -1
v 0.5 1.8 -1
v 0.5 1.9 -1
v 0.6 1.8 -1
v 0.6 1.9 -1
v 0.7 1.8 -1
v 0.7 1.9 -1
v 0.8 1.8 -1
v 0.8 1.9 -1
v 0.9 1.8 -1
v 0.9 1.9 -1
v -1 1.9 -1.1
v -1 2 -1.1
v 1 1.9 -1.1
v 1 2 -1.1
v -0.1 1.8 0.9
v 0 1.8 0.9
v -0.2 1.8 0.8
v -0.1 1.8 0.8
v 0 1.8 0.8
v 0.1 1.8 0.8
v -0.3 1.8 0.7
v -0.2 1.8 0.7
v 0.1 1.8 0.7
v 0.2 1.8 0.7
v -0.4 1.8 0.6
v -0.3 1.8 0.6
v 0.2 1.8 0.6
v 0.3 1.8 0.6
v -0.5 1.8 0.4
v -0.4 1.8 0.4
v 0.3 1.8 0.4
v 0.4 1.8 0.4
v -0.6 1.8 0.1
v -0.5 1.8 0.1
v 0.4 1.8 0.1
v 0.5 1.8 0.1
v -0.7 1.8 -0.1
v -0.6 1.8 -0.1
v 0.5 1.8 -0.1
v 0.6 1.8 -0.1
v -0.8 1.8 -0.3
v -0.7 1.8 -0.3
v 0.6 1.8 -0.3
v 0.7 1.8 -0.3
v 0.7 1.8 -0.5
v 0.8 1.8 -0.5
v -0.9 1.8 -0.6
v -0.8 1.8 -0.6
v 0.8 1.8 -0.6
v 0.9 1.8 -0.6
v -0.9 1.8 -1
v -0.8 1.8 -1
v -0.7 1.8 -1
v -0.6 1.8 -1
v -0.5 1.8 -1
v -0.4 1.8 -1
v -0.3 1.8 -1
v -0.2 1.8 -1
v -0.1 1.8 -1
v 0 1.8 -1
v 0.1 1.8 -1
v 0.2 1.8 -1
v 0.3 1.8 -1
v 0.4 1.8 -1
v 0.5 1.8 -1
v 0.6 1.8 -1
v 0.7 1.8 -1
v 0.8 1.8 -1
v 0.9 1.8 -1
v -0.1 1.9 1
v 0 1.9 1
v -0.2 1.9 0.9
v -0.1 1.9 0.9
v 0 1.9 0.9
v 0.1 1.9 0.9
v -0.3 1.9 0.8
v -0.2 1.9 0.8
v -0.1 1.9 0.8
v 0 1.9 0.8
v 0.1 1.9 0.8
v 0.2 1.9 0.8
v -0.4 1.9 0.7
v -0.3 1.9 0.7
v -0.2 1.9 0.7
v 0.1 1.9 0.7
v 0.2 1.9 0.7
v 0.3 1.9 0.7
v -0.5 1.9 0.6
v -0.4 1.9 0.6
v -0.3 1.9 0.6
v 0.2 1.9 0.6
v 0.3 1.9 0.6
v 0.4 1.9 0.6
v -0.6 1.9 0.4
v -0.5 1.9 0.4
v -0.4 1.9 0.4
v 0.3 1.9 0.4
v 0.4 1.9 0.4
v 0.5 1.9 0.4
v -0.7 1.9 0.1
v -0.6 1.9 0.1
v -0.5 1.9 0.1
v 0.4 1.9 0.1
v 0.5 1.9 0.1
v 0.6 1.9 0.1
v -0.8 1.9 -0.1
v -0.7 1.9 -0.1
v -0.6 1.9 -0.1
v 0.5 1.9 -0.1
v 0.6 1.9 -0.1
v 0.7 1.9 -0.1
v -0.9 1.9 -0.3
v -0.8 1.9 -0.3
v -0.7 1.9 -0.3
v 0.6 1.9 -0.3
v 0.7 1.9 -0.3
v 0.8 1.9 -0.3
v -1 1.9 -0.5
v -0.9 1.9 -0.5
v 0.7 1.9 -0.5
v 0.8 1.9 -0.5
v 1 1.9 -0.5
v -0.9 1.9 -0.6
v -0.8 1.9 -0.6
v 0.8 1.9 -0.6
v 0.9 1.9 -0.6
v -0.9 1.9 -1
v -0.8 1.9 -1
v -0.7 1.9 -1
v -0.6 1.9 -1
v -0.5 1.9 -1
v -0.4 1.9 -1
v -0.3 1.9 -1
v -0.2 1.9 -1
v -0.1 1.9 -1
v 0 1.9 -1
v 0.1 1.9 -1
v 0.2 1.9 -1
v 0.3 1.9 -1
v 0.4 1.9 -1
v 0.5 1.9 -1
v 0.6 1.9 -1
v 0.7 1.9 -1
v 0.8 1.9 -1
v 0.9 1.9 -1
v -1 1.9 -1.1
v 1 1.9 -1.1
v 0.6 1.9 -0.5
v 0.7 1.9 -0.5
v 0.6 1.9 -0.7
v 0.7 1.9 -0.7
v -0.1 2 1
v 0 2 1
v -0.2 2 0.9
v -0.1 2 0.9
v 0 2 0.9
v 0.1 2 0.9
v -0.3 2 0.8
v -0.2 2 0.8
v 0 2 0.8
v 0.1 2 0.8
v 0.2 2 0.8
v -0.4 2 0.7
v -0.3 2 0.7
v -0.2 2 0.7
v -0.1 2 0.7
v 0.1 2 0.7
v 0.2 2 0.7
v 0.3 2 0.7
v -0.5 2 0.6
v -0.4 2 0.6
v -0.3 2 0.6
v 0.2 2 0.6
v 0.3 2 0.6
v 0.4 2 0.6
v -0.6 2 0.4
v -0.5 2 0.4
v -0.4 2 0.4
v 0.3 2 0.4
v 0.4 2 0.4
v 0.5 2 0.4
v -0.7 2 0.1
v -0.6 2 0.1
v -0.5 2 0.1
v 0.4 2 0.1
v 0.5 2 0.1
v 0.6 2 0.1
v -0.8 2 -0.1
v -0.7 2 -0.1
v -0.6 2 -0.1
v 0.5 2 -0.1
v 0.6 2 -0.1
v 0.7 2 -0.1
v -0.9 2 -0.3
v -0.8 2 -0.3
v -0.7 2 -0.3
v 0.6 2 -0.3
v 0.7 2 -0.3
v 0.8 2 -0.3
v -1 2 -0.5
v -0.9 2 -0.5
v -0.8 2 -0.5
v -0.7 2 -0.5
v 0.6 2 -0.5
v 0.7 2 -0.5
v 0.8 2 -0.5
v 1 2 -0.5
v -0.8 2 -0.6
v -0.7 2 -0.6
v 0.8 2 -0.6
v 0.9 2 -0.6
v -0.8 2 -0.7
v -0.7 2 -0.7
v -0.6 2 -0.7
v -0.5 2 -0.7
v -0.4 2 -0.7
v -0.3 2 -0.7
v -0.2 2 -0.7
v -0.1 2 -0.7
v 0 2 -0.7
v 0.1 2 -0.7
v 0.2 2 -0.7
v 0.3 2 -0.7
v 0.4 2 -0.7
v 0.5 2 -0.7
v 0.6 2 -0.7
v 0.7 2 -0.7
v 0.8 2 -0.7
v 0.9 2 -0.7
v -1 2 -1.1
v 1 2 -1.1

# faces
f 3/1/1 2/1/1 1/1/1
f 4/1/1 2/1/1 3/1/1
f 9/2/1 6/2/1 5/2/1
f 10/2/1 6/2/1 9/2/1
f 11/1/1 8/1/1 7/1/1
f 12/1/1 8/1/1 11/1/1
f 16/3/1 14/3/1 13/3/1
f 17/3/1 14/3/1 16/3/1
f 18/1/1 16/1/1 15/1/1
f 19/1/1 16/1/1 18/1/1
f 23/2/1 21/2/1 20/2/1
f 24/2/1 21/2/1 23/2/1
f 25/1/1 23/1/1 22/1/1
f 26/1/1 23/1/1 25/1/1
f 30/3/1 28/3/1 27/3/1
f 31/3/1 28/3/1 30/3/1
f 32/1/1 30/1/1 29/1/1
f 33/1/1 30/1/1 32/1/1
f 37/2/1 35/2/1 34/2/1
f 38/2/1 35/2/1 37/2/1
f 39/1/1 37/1/1 36/1/1
f 40/1/1 37/1/1 39/1/1
f 44/3/1 42/3/1 41/3/1
f 45/3/1 42/3/1 44/3/1
f 46/1/1 44/1/1 43/1/1
f 47/1/1 44/1/1 46/1/1
f 51/2/1 49/2/1 48/2/1
f 52/2/1 49/2/1 51/2/1
f 53/1/1 51/1/1 50/1/1
f 54/1/1 51/1/1 53/1/1
f 58/3/1 56/3/1 55/3/1
f 59/3/1 56/3/1 58/3/1
f 60/1/1 58/1/1 57/1/1
f 61/1/1 58/1/1 60/1/1
f 65/2/1 63/2/1 62/2/1
f 66/2/1 63/2/1 65/2/1
f 67/1/1 65/1/1 64/1/1
f 68/1/1 65/1/1 67/1/1
f 71/2/1 70/2/1 69/2/1
f 72/2/1 70/2/1 71/2/1
f 73/2/2 74/2/2 76/2/2
f 76/2/2 74/2/2 77/2/2
f 75/1/2 76/1/2 78/1/2
f 78/1/2 76/1/2 79/1/2
f 80/3/2 81/3/2 83/3/2
f 83/3/2 81/3/2 84/3/2
f 82/1/2 83/1/2 85/1/2
f 85/1/2 83/1/2 86/1/2
f 87/2/2 88/2/2 90/2/2
f 90/2/2 88/2/2 91/2/2
f 89/1/2 90/1/2 92/1/2
f 92/1/2 90/1/2 93/1/2
f 94/3/2 95/3/2 97/3/2
f 97/3/2 95/3/2 98/3/2
f 96/1/2 97/1/2 99/1/2
f 99/1/2 97/1/2 100/1/2
f 101/2/2 102/2/2 104/2/2
f 104/2/2 102/2/2 105/2/2
f 103/1/2 104/1/2 106/1/2
f 106/1/2 104/1/2 107/1/2
f 108/3/2 109/3/2 111/3/2
f 111/3/2 109/3/2 112/3/2
f 110/1/2 111/1/2 113/1/2
f 113/1/2 111/1/2 114/1/2
f 115/2/2 116/2/2 118/2/2
f 118/2/2 116/2/2 119/2/2
f 117/1/2 118/1/2 122/1/2
f 122/1/2 118/1/2 123/1/2
f 120/2/2 121/2/2 124/2/2
f 124/2/2 121/2/2 125/2/2
f 126/3/2 127/3/2 129/3/2
f 129/3/2 127/3/2 130/3/2
f 128/1/2 129/1/2 131/1/2
f 131/1/2 129/1/2 132/1/2
f 133/2/2 134/2/2 136/2/2
f 136/2/2 134/2/2 137/2/2
f 135/1/2 136/1/2 138/1/2
f 138/1/2 136/1/2 139/1/2
f 140/3/2 141/3/2 142/3/2
f 142/3/2 141/3/2 143/3/2
f 144/1/2 145/1/2 146/1/2
f 146/1/2 145/1/2 147/1/2
f 150/1/3 149/1/3 148/1/3
f 151/1/3 149/1/3 150/1/3
f 155/1/3 153/1/3 152/1/3
f 156/1/3 153/1/3 155/1/3
f 157/2/3 155/2/3 154/2/3
f 158/2/3 155/2/3 157/2/3
f 160/1/3 159/1/3 158/1/3
f 161/1/3 159/1/3 160/1/3
f 165/1/3 163/1/3 162/1/3
f 166/1/3 163/1/3 165/1/3
f 167/3/3 165/3/3 164/3/3
f 168/3/3 165/3/3 167/3/3
f 171/3/3 170/3/3 169/3/3
f 172/3/3 170/3/3 171/3/3
f 174/1/3 173/1/3 172/1/3
f 175/1/3 173/1/3 174/1/3
f 179/1/3 177/1/3 176/1/3
f 180/1/3 177/1/3 179/1/3
f 181/2/3 179/2/3 178/2/3
f 182/2/3 179/2/3 181/2/3
f 185/2/3 184/2/3 183/2/3
f 186/2/3 184/2/3 185/2/3
f 188/1/3 187/1/3 186/1/3
f 189/1/3 187/1/3 188/1/3
f 193/1/3 191/1/3 190/1/3
f 194/1/3 191/1/3 193/1/3
f 195/3/3 193/3/3 192/3/3
f 196/3/3 193/3/3 195/3/3
f 199/3/3 198/3/3 197/3/3
f 200/3/3 198/3/3 199/3/3
f 202/1/3 201/1/3 200/1/3
f 203/1/3 201/1/3 202/1/3
f 207/1/3 205/1/3 204/1/3
f 208/1/3 205/1/3 207/1/3
f 209/2/3 207/2/3 206/2/3
f 210/2/3 207/2/3 209/2/3
f 213/2/3 212/2/3 211/2/3
f 214/2/3 212/2/3 213/2/3
f 216/1/3 215/1/3 214/1/3
f 217/1/3 215/1/3 216/1/3
f 221/1/3 219/1/3 218/1/3
f 222/1/3 219/1/3 221/1/3
f 223/3/3 221/3/3 220/3/3
f 224/3/3 221/3/3 223/3/3
f 227/3/3 226/3/3 225/3/3
f 228/3/3 226/3/3 227/3/3
f 230/1/3 229/1/3 228/1/3
f 231/1/3 229/1/3 230/1/3
f 235/1/3 233/1/3 232/1/3
f 236/1/3 233/1/3 235/1/3
f 237/2/3 235/2/3 234/2/3
f 238/2/3 235/2/3 237/2/3
f 241/2/3 240/2/3 239/2/3
f 242/2/3 240/2/3 241/2/3
f 244/1/3 243/1/3 242/1/3
f 245/1/3 243/1/3 244/1/3
f 249/1/3 247/1/3 246/1/3
f 250/1/3 247/1/3 249/1/3
f 251/3/3 249/3/3 248/3/3
f 252/3/3 249/3/3 251/3/3
f 255/3/3 254/3/3 253/3/3
f 256/3/3 254/3/3 255/3/3
f 258/1/3 257/1/3 256/1/3
f 259/1/3 257/1/3 258/1/3
f 262/1/3 261/1/3 260/1/3
f 263/1/3 261/1/3 262/1/3
f 266/2/3 265/2/3 264/2/3
f 267/2/3 265/2/3 266/2/3
f 269/1/3 268/1/3 267/1/3
f 270/1/3 268/1/3 269/1/3
f 273/2/3 272/2/3 271/2/3
f 274/2/3 272/2/3 273/2/3
f 277/3/3 276/3/3 275/3/3
f 278/3/3 276/3/3 277/3/3
f 281/1/3 280/1/3 279/1/3
f 282/1/3 280/1/3 281/1/3
f 283/3/4 284/3/4 285/3/4
f 285/3/4 284/3/4 286/3/4
f 287/2/4 288/2/4 289/2/4
f 289/2/4 288/2/4 290/2/4
f 289/3/4 290/3/4 291/3/4
f 291/3/4 290/3/4 292/3/4
f 291/2/4 292/2/4 293/2/4
f 293/2/4 292/2/4 294/2/4
f 293/3/4 294/3/4 295/3/4
f 295/3/4 294/3/4 296/3/4
f 295/2/4 296/2/4 297/2/4
f 297/2/4 296/2/4 298/2/4
f 297/3/4 298/3/4 299/3/4
f 299/3/4 298/3/4 300/3/4
f 299/2/4 300/2/4 301/2/4
f 301/2/4 300/2/4 302/2/4
f 301/3/4 302/3/4 303/3/4
f 303/3/4 302/3/4 304/3/4
f 303/2/4 304/2/4 305/2/4
f 305/2/4 304/2/4 306/2/4
f 305/3/4 306/3/4 307/3/4
f 307/3/4 306/3/4 308/3/4
f 307/2/4 308/2/4 309/2/4
f 309/2/4 308/2/4 310/2/4
f 309/3/4 310/3/4 311/3/4
f 311/3/4 310/3/4 312/3/4
f 311/2/4 312/2/4 313/2/4
f 313/2/4 312/2/4 314/2/4
f 313/3/4 314/3/4 315/3/4
f 315/3/4 314/3/4 316/3/4
f 315/2/4 316/2/4 317/2/4
f 317/2/4 316/2/4 318/2/4
f 317/3/4 318/3/4 319/3/4
f 319/3/4 318/3/4 320/3/4
f 319/2/4 320/2/4 321/2/4
f 321/2/4 320/2/4 322/2/4
f 321/3/4 322/3/4 323/3/4
f 323/3/4 322/3/4 324/3/4
f 325/1/4 326/1/4 327/1/4
f 327/1/4 326/1/4 328/1/4
f 332/2/5 330/2/5 329/2/5
f 333/2/5 330/2/5 332/2/5
f 336/3/5 332/3/5 331/3/5
f 337/3/5 334/3/5 333/3/5
f 340/2/5 336/2/5 335/2/5
f 341/2/5 338/2/5 337/2/5
f 344/3/5 340/3/5 339/3/5
f 345/3/5 342/3/5 341/3/5
f 348/2/5 344/2/5 343/2/5
f 349/2/5 346/2/5 345/2/5
f 352/3/5 348/3/5 347/3/5
f 353/3/5 350/3/5 349/3/5
f 356/2/5 352/2/5 351/2/5
f 357/2/5 354/2/5 353/2/5
f 359/3/5 358/3/5 357/3/5
f 362/3/5 356/3/5 355/3/5
f 363/2/5 360/2/5 359/2/5
f 365/2/5 362/2/5 361/2/5
f 366/3/5 356/3/5 362/3/5
f 366/2/5 362/2/5 365/2/5
f 367/2/5 352/2/5 356/2/5
f 367/3/5 356/3/5 366/3/5
f 368/3/5 348/3/5 352/3/5
f 368/2/5 352/2/5 367/2/5
f 369/2/5 344/2/5 348/2/5
f 369/3/5 348/3/5 368/3/5
f 370/3/5 340/3/5 344/3/5
f 370/2/5 344/2/5 369/2/5
f 371/2/5 336/2/5 340/2/5
f 371/3/5 340/3/5 370/3/5
f 372/3/5 332/3/5 336/3/5
f 372/2/5 336/2/5 371/2/5
f 373/2/5 333/2/5 332/2/5
f 373/3/5 332/3/5 372/3/5
f 374/3/5 337/3/5 333/3/5
f 374/2/5 333/2/5 373/2/5
f 375/2/5 341/2/5 337/2/5
f 375/3/5 337/3/5 374/3/5
f 376/3/5 345/3/5 341/3/5
f 376/2/5 341/2/5 375/2/5
f 377/2/5 349/2/5 345/2/5
f 377/3/5 345/3/5 376/3/5
f 378/3/5 353/3/5 349/3/5
f 378/2/5 349/2/5 377/2/5
f 379/2/5 357/2/5 353/2/5
f 379/3/5 353/3/5 378/3/5
f 380/3/5 359/3/5 357/3/5
f 380/2/5 357/2/5 379/2/5
f 381/2/5 363/2/5 359/2/5
f 381/3/5 359/3/5 380/3/5
f 382/3/5 364/3/5 363/3/5
f 382/2/5 363/2/5 381/2/5
f 383/3/5 364/3/5 382/3/5
f 387/1/5 385/1/5 384/1/5
f 388/1/5 385/1/5 387/1/5
f 391/1/5 387/1/5 386/1/5
f 392/1/5 387/1/5 391/1/5
f 393/1/5 389/1/5 388/1/5
f 394/1/5 389/1/5 393/1/5
f 397/1/5 391/1/5 390/1/5
f 398/1/5 391/1/5 397/1/5
f 399/1/5 395/1/5 394/1/5
f 400/1/5 395/1/5 399/1/5
f 403/1/5 397/1/5 396/1/5
f 404/1/5 397/1/5 403/1/5
f 405/1/5 401/1/5 400/1/5
f 406/1/5 401/1/5 405/1/5
f 409/1/5 403/1/5 402/1/5
f 410/1/5 403/1/5 409/1/5
f 411/1/5 407/1/5 406/1/5
f 412/1/5 407/1/5 411/1/5
f 415/1/5 409/1/5 408/1/5
f 416/1/5 409/1/5 415/1/5
f 417/1/5 413/1/5 412/1/5
f 418/1/5 413/1/5 417/1/5
f 421/1/5 415/1/5 414/1/5
f 422/1/5 415/1/5 421/1/5
f 423/1/5 419/1/5 418/1/5
f 424/1/5 419/1/5 423/1/5
f 427/1/5 421/1/5 420/1/5
f 428/1/5 421/1/5 427/1/5
f 429/1/5 425/1/5 424/1/5
f 430/1/5 425/1/5 429/1/5
f 433/1/5 427/1/5 426/1/5
f 434/1/5 431/1/5 430/1/5
f 435/1/5 431/1/5 434/1/5
f 437/1/5 433/1/5 432/1/5
f 437/1/5 427/1/5 433/1/5
f 438/1/5 427/1/5 437/1/5
f 439/1/5 436/1/5 435/1/5
f 440/1/5 436/1/5 439/1/5
f 441/1/5 437/1/5 432/1/5
f 459/1/5 436/1/5 440/1/5
f 460/1/5 458/1/5 457/1/5
f 460/1/5 459/1/5 458/1/5
f 460/1/5 441/1/5 432/1/5
f 460/1/5 442/1/5 441/1/5
f 460/1/5 457/1/5 456/1/5
f 460/1/5 456/1/5 455/1/5
f 460/1/5 455/1/5 454/1/5
f 460/1/5 454/1/5 453/1/5
f 460/1/5 453/1/5 452/1/5
f 460/1/5 452/1/5 451/1/5
f 460/1/5 451/1/5 450/1/5
f 460/1/5 450/1/5 449/1/5
f 460/1/5 449/1/5 448/1/5
f 460/1/5 448/1/5 447/1/5
f 460/1/5 447/1/5 446/1/5
f 460/1/5 446/1/5 445/1/5
f 460/1/5 445/1/5 444/1/5
f 460/1/5 444/1/5 443/1/5
f 460/1/5 443/1/5 442/1/5
f 461/1/5 436/1/5 459/1/5
f 461/1/5 459/1/5 460/1/5
f 462/3/6 463/3/6 464/3/6
f 464/3/6 463/3/6 465/3/6
f 466/1/6 467/1/6 469/1/6
f 469/1/6 467/1/6 470/1/6
f 468/1/6 469/1/6 473/1/6
f 470/1/6 471/1/6 473/1/6
f 469/1/6 470/1/6 473/1/6
f 473/1/6 471/1/6 474/1/6
f 474/1/6 471/1/6 475/1/6
f 472/1/6 473/1/6 478/1/6
f 473/1/6 474/1/6 478/1/6
f 478/1/6 474/1/6 479/1/6
f 479/1/6 474/1/6 480/1/6
f 475/1/6 476/1/6 481/1/6
f 474/3/6 475/3/6 481/3/6
f 481/1/6 476/1/6 482/1/6
f 477/1/6 478/1/6 485/1/6
f 478/2/6 479/2/6 486/2/6
f 485/1/6 478/1/6 486/1/6
f 482/1/6 483/1/6 487/1/6
f 481/2/6 482/2/6 487/2/6
f 487/1/6 483/1/6 488/1/6
f 484/1/6 485/1/6 491/1/6
f 485/3/6 486/3/6 492/3/6
f 491/1/6 485/1/6 492/1/6
f 488/1/6 489/1/6 493/1/6
f 487/3/6 488/3/6 493/3/6
f 493/1/6 489/1/6 494/1/6
f 490/1/6 491/1/6 497/1/6
f 491/2/6 492/2/6 498/2/6
f 497/1/6 491/1/6 498/1/6
f 494/1/6 495/1/6 499/1/6
f 493/2/6 494/2/6 499/2/6
f 499/1/6 495/1/6 500/1/6
f 496/1/6 497/1/6 503/1/6
f 497/3/6 498/3/6 504/3/6
f 503/1/6 497/1/6 504/1/6
f 500/1/6 501/1/6 505/1/6
f 499/3/6 500/3/6 505/3/6
f 505/1/6 501/1/6 506/1/6
f 502/1/6 503/1/6 509/1/6
f 503/2/6 504/2/6 510/2/6
f 509/1/6 503/1/6 510/1/6
f 506/1/6 507/1/6 511/1/6
f 505/2/6 506/2/6 511/2/6
f 511/1/6 507/1/6 512/1/6
f 508/1/6 509/1/6 515/1/6
f 509/3/6 510/3/6 516/3/6
f 515/1/6 509/1/6 516/1/6
f 510/2/6 504/2/6 517/2/6
f 516/3/6 510/3/6 517/3/6
f 505/2/6 511/2/6 518/2/6
f 511/3/6 512/3/6 518/3/6
f 512/1/6 513/1/6 519/1/6
f 518/3/6 512/3/6 519/3/6
f 519/1/6 513/1/6 520/1/6
f 515/1/6 516/1/6 522/1/6
f 514/1/6 515/1/6 522/1/6
f 516/1/6 517/1/6 522/1/6
f 517/2/6 504/2/6 523/2/6
f 522/1/6 517/1/6 523/1/6
f 520/1/6 521/1/6 524/1/6
f 519/2/6 520/2/6 524/2/6
f 524/1/6 521/1/6 525/1/6
f 522/3/6 523/3/6 526/3/6
f 514/1/6 522/1/6 526/1/6
f 523/2/6 504/2/6 527/2/6
f 526/3/6 523/3/6 527/3/6
f 504/3/6 498/3/6 528/3/6
f 527/2/6 504/2/6 528/2/6
f 498/2/6 492/2/6 529/2/6
f 528/3/6 498/3/6 529/3/6
f 492/3/6 486/3/6 530/3/6
f 529/2/6 492/2/6 530/2/6
f 486/2/6 479/2/6 531/2/6
f 530/3/6 486/3/6 531/3/6
f 479/3/6 480/3/6 532/3/6
f 531/2/6 479/2/6 532/2/6
f 480/1/6 474/1/6 533/1/6
f 532/3/6 480/3/6 533/3/6
f 474/3/6 481/3/6 534/3/6
f 533/1/6 474/1/6 534/1/6
f 481/2/6 487/2/6 535/2/6
f 534/3/6 481/3/6 535/3/6
f 487/3/6 493/3/6 536/3/6
f 535/2/6 487/2/6 536/2/6
f 493/2/6 499/2/6 537/2/6
f 536/3/6 493/3/6 537/3/6
f 499/3/6 505/3/6 538/3/6
f 537/2/6 499/2/6 538/2/6
f 505/2/6 518/2/6 539/2/6
f 538/3/6 505/3/6 539/3/6
f 539/2/6 518/2/6 540/2/6
f 519/2/6 524/2/6 541/2/6
f 524/3/6 525/3/6 542/3/6
f 541/2/6 524/2/6 542/2/6
f 525/1/6 521/1/6 543/1/6
f 542/3/6 525/3/6 543/3/6
f 531/1/6 532/1/6 544/1/6
f 530/1/6 531/1/6 544/1/6
f 542/1/6 543/1/6 544/1/6
f 529/1/6 530/1/6 544/1/6
f 538/1/6 539/1/6 544/1/6
f 539/1/6 540/1/6 544/1/6
f 528/1/6 529/1/6 544/1/6
f 540/1/6 541/1/6 544/1/6
f 532/1/6 533/1/6 544/1/6
f 541/1/6 542/1/6 544/1/6
f 536/1/6 537/1/6 544/1/6
f 527/1/6 528/1/6 544/1/6
f 537/1/6 538/1/6 544/1/6
f 535/1/6 536/1/6 544/1/6
f 533/1/6 534/1/6 544/1/6
f 514/1/6 526/1/6 544/1/6
f 534/1/6 535/1/6 544/1/6
f 526/1/6 527/1/6 544/1/6
f 543/1/6 521/1/6 545/1/6
f 544/1/6 543/1/6 545/1/6
